<svg xmlns="http://www.w3.org/2000/svg" viewBox="0 0 64 64" fill="none">
  <rect width="64" height="64" fill="#f5ead3"/>
  <circle cx="32" cy="32" r="30" stroke="#3a5a2a" stroke-width="1.2" fill="none" opacity="0.35"/>
  <path d="M19 22 L32 48 L45 22" stroke="#3a5a2a" stroke-width="3.4" stroke-linecap="round" stroke-linejoin="round" fill="none"/>
  <path d="M14 30 C 14 26, 12 23, 9 22"  stroke="#3a5a2a" stroke-width="1.3" stroke-linecap="round" fill="none"/>
  <path d="M14 34 C 14 38, 12 41, 9 42"  stroke="#3a5a2a" stroke-width="1.3" stroke-linecap="round" fill="none"/>
  <path d="M16 27 C 16 24, 14 22, 12 21" stroke="#3a5a2a" stroke-width="1.1" stroke-linecap="round" fill="none"/>
  <path d="M16 37 C 16 40, 14 42, 12 43" stroke="#3a5a2a" stroke-width="1.1" stroke-linecap="round" fill="none"/>
  <path d="M50 30 C 50 26, 52 23, 55 22"  stroke="#3a5a2a" stroke-width="1.3" stroke-linecap="round" fill="none"/>
  <path d="M50 34 C 50 38, 52 41, 55 42"  stroke="#3a5a2a" stroke-width="1.3" stroke-linecap="round" fill="none"/>
  <path d="M48 27 C 48 24, 50 22, 52 21"  stroke="#3a5a2a" stroke-width="1.1" stroke-linecap="round" fill="none"/>
  <path d="M48 37 C 48 40, 50 42, 52 43"  stroke="#3a5a2a" stroke-width="1.1" stroke-linecap="round" fill="none"/>
</svg>
