<svg xmlns="http://www.w3.org/2000/svg" viewBox="0 0 64 64" fill="none" stroke="#3a5a2a" stroke-width="1.8" stroke-linecap="round" stroke-linejoin="round" aria-hidden="true">
  <path d="M22 56 L 22 36"/>
  <path d="M42 56 L 42 36"/>
  <path d="M22 36 C 16 32 12 22 14 12 C 18 18 22 26 22 36 Z" fill="#3a5a2a"/>
  <path d="M42 36 C 48 32 52 22 50 12 C 46 18 42 26 42 36 Z" fill="#3a5a2a"/>
  <path d="M32 56 L 32 30"/>
  <path d="M32 30 C 28 24 26 16 28 8 C 32 14 34 22 32 30 Z" fill="#3a5a2a"/>
  <path d="M32 30 C 36 24 38 16 36 8 C 32 14 30 22 32 30 Z" fill="#3a5a2a"/>
</svg>
