<svg xmlns="http://www.w3.org/2000/svg" viewBox="0 0 64 64" fill="#3a5a2a" aria-hidden="true">
  <path d="M32 56 V 32" fill="none" stroke="#3a5a2a" stroke-width="1.8" stroke-linecap="round"/>
  <path d="M22 38 L 22 20" fill="none" stroke="#3a5a2a" stroke-width="1.4" stroke-linecap="round"/>
  <path d="M42 38 L 42 20" fill="none" stroke="#3a5a2a" stroke-width="1.4" stroke-linecap="round"/>
  <path d="M22 20 C 18 18 14 20 14 14 C 16 12 20 14 22 18 C 22 14 26 12 28 14 C 28 18 24 18 22 22 Z"/>
  <path d="M42 20 C 46 18 50 20 50 14 C 48 12 44 14 42 18 C 42 14 38 12 36 14 C 36 18 40 18 42 22 Z"/>
  <path d="M32 32 C 28 30 24 32 24 26 C 26 24 30 26 32 30 C 32 26 36 24 38 26 C 38 32 34 30 32 32 Z"/>
  <path d="M32 18 C 28 16 24 18 24 12 C 26 10 30 12 32 16 C 32 12 36 10 38 12 C 38 18 34 16 32 18 Z"/>
</svg>
