<svg xmlns="http://www.w3.org/2000/svg" viewBox="0 0 64 64" fill="none" stroke="#3a5a2a" stroke-width="1.8" stroke-linecap="round" stroke-linejoin="round" aria-hidden="true">
  <ellipse cx="32" cy="48" rx="14" ry="10" fill="#3a5a2a"/>
  <path d="M32 38 V 18"/>
  <path d="M32 30 C 26 28 22 22 22 14 C 28 18 32 22 32 28 Z" fill="#3a5a2a"/>
  <path d="M32 30 C 38 28 42 22 42 14 C 36 18 32 22 32 28 Z" fill="#3a5a2a"/>
  <path d="M32 22 C 28 18 26 12 28 6 C 32 12 32 16 32 22 Z" fill="#3a5a2a"/>
  <path d="M32 22 C 36 18 38 12 36 6 C 32 12 32 16 32 22 Z" fill="#3a5a2a"/>
</svg>
