<svg xmlns="http://www.w3.org/2000/svg" viewBox="0 0 64 64" fill="none" stroke="#3a5a2a" stroke-width="1.8" stroke-linecap="round" stroke-linejoin="round" aria-hidden="true">
  <path d="M32 56 C 22 56 16 48 16 38 C 16 30 22 26 32 26 C 42 26 48 30 48 38 C 48 48 42 56 32 56 Z" fill="#3a5a2a"/>
  <path d="M32 56 L 32 60"/>
  <path d="M32 26 V 14"/>
  <path d="M32 18 C 26 14 22 8 24 4 C 28 8 32 12 32 18 Z" fill="#3a5a2a"/>
  <path d="M32 18 C 38 14 42 8 40 4 C 36 8 32 12 32 18 Z" fill="#3a5a2a"/>
  <path d="M32 14 L 32 6"/>
</svg>
