<svg xmlns="http://www.w3.org/2000/svg" viewBox="0 0 1200 630" role="img" aria-label="Line drawing of slender beet microgreen stems with small paired leaves rising from a shallow tray, a few seed clusters on the soil, and a small sun above">
  <rect width="1200" height="630" fill="#f5ead3"/>

  <!-- sun, upper right -->
  <g fill="none" stroke="#8a7e3a" stroke-width="5" stroke-linecap="round" stroke-linejoin="round">
    <circle cx="1012" cy="142" r="48"/>
    <path d="M1012 58 v -24 M1012 226 v 24 M928 142 h -24 M1096 142 h 24
             M952 82 l -17 -17 M1072 202 l 17 17 M1072 82 l 17 -17 M952 202 l -17 17"/>
  </g>

  <!-- beet stems: slender, slightly leaning, drawn in burgundy for the pink stem -->
  <g fill="none" stroke="#6b2a2f" stroke-width="5" stroke-linecap="round" stroke-linejoin="round">
    <path d="M372 468 C 368 400 378 348 388 306"/>
    <path d="M444 468 C 444 412 452 372 460 338"/>
    <path d="M520 468 C 512 386 522 324 532 276"/>
    <path d="M596 468 C 592 404 602 358 612 318"/>
    <path d="M672 468 C 664 376 676 312 686 262"/>
    <path d="M748 468 C 746 408 754 366 762 330"/>
    <path d="M824 468 C 822 420 828 386 834 356"/>
  </g>

  <!-- the small paired leaves on top of each stem -->
  <g fill="none" stroke="#3a5a2a" stroke-width="5" stroke-linecap="round" stroke-linejoin="round">
    <path d="M388 306 C 362 300 346 282 350 262 C 374 264 388 286 388 306"/>
    <path d="M388 306 C 414 300 430 282 426 262 C 402 264 388 286 388 306"/>

    <path d="M460 338 C 436 332 422 316 426 298 C 448 300 460 320 460 338"/>
    <path d="M460 338 C 484 332 498 316 494 298 C 472 300 460 320 460 338"/>

    <path d="M532 276 C 504 270 486 250 490 228 C 516 230 532 254 532 276"/>
    <path d="M532 276 C 560 270 578 250 574 228 C 548 230 532 254 532 276"/>

    <path d="M612 318 C 586 312 570 294 574 274 C 598 276 612 298 612 318"/>
    <path d="M612 318 C 638 312 654 294 650 274 C 626 276 612 298 612 318"/>

    <path d="M686 262 C 656 256 638 234 642 210 C 670 212 686 238 686 262"/>
    <path d="M686 262 C 716 256 734 234 730 210 C 702 212 686 238 686 262"/>

    <path d="M762 330 C 738 324 724 308 728 288 C 750 290 762 312 762 330"/>
    <path d="M762 330 C 786 324 800 308 796 288 C 774 290 762 312 762 330"/>

    <path d="M834 356 C 812 350 800 336 804 318 C 824 320 834 340 834 356"/>
    <path d="M834 356 C 856 350 868 336 864 318 C 844 320 834 340 834 356"/>
  </g>

  <!-- shallow tray -->
  <g fill="none" stroke="#5c4633" stroke-width="6" stroke-linecap="round" stroke-linejoin="round">
    <path d="M290 468 H 910"/>
    <path d="M338 468 L 356 512 H 844 L 862 468"/>
    <path d="M338 468 L 362 450 H 838 L 862 468"/>
  </g>

  <!-- soil bed inside the tray -->
  <path d="M374 460 H 826 L 838 468 H 362 Z" fill="#5c4633" fill-opacity="0.14" stroke="#5c4633" stroke-width="3"/>

  <!-- beet seed clusters: knobbly, not smooth, sitting on the soil -->
  <g fill="none" stroke="#1f2419" stroke-width="4" stroke-linecap="round" stroke-linejoin="round">
    <path d="M408 458 C 400 452 404 442 414 444 C 422 438 430 446 424 454 C 420 462 412 462 408 458 Z"/>
    <path d="M566 458 C 558 452 562 442 572 444 C 580 438 588 446 582 454 C 578 462 570 462 566 458 Z"/>
    <path d="M724 458 C 716 452 720 442 730 444 C 738 438 746 446 740 454 C 736 462 728 462 724 458 Z"/>
  </g>
</svg>
