<svg xmlns="http://www.w3.org/2000/svg" viewBox="0 0 1200 630" role="img" aria-label="Line drawing of an open spiral notebook with a pencil lying across a blank page, beside a small stack of envelopes">
  <rect width="1200" height="630" fill="#f5ead3"/>
  <g fill="none" stroke="#5c4633" stroke-width="8" stroke-linecap="round" stroke-linejoin="round">
    <path d="M100 500 H 1100"/>
  </g>

  <g fill="#f5ead3" stroke="#1f2419" stroke-width="8" stroke-linecap="round" stroke-linejoin="round">
    <rect x="330" y="130" width="266" height="360" rx="8"/>
    <rect x="604" y="130" width="266" height="360" rx="8"/>
  </g>

  <g fill="none" stroke="#8a7e3a" stroke-width="4" stroke-linecap="round" stroke-linejoin="round">
    <path d="M362 190 H 566"/>
    <path d="M362 232 H 566"/>
    <path d="M362 274 H 566"/>
    <path d="M362 316 H 566"/>
    <path d="M362 358 H 566"/>
    <path d="M362 400 H 566"/>
    <path d="M362 442 H 566"/>
  </g>

  <g fill="none" stroke="#1f2419" stroke-width="6" stroke-linecap="round" stroke-linejoin="round">
    <circle cx="600" cy="160" r="9" fill="#f5ead3"/>
    <path d="M580 160 H 620"/>
    <circle cx="600" cy="198" r="9" fill="#f5ead3"/>
    <path d="M580 198 H 620"/>
    <circle cx="600" cy="236" r="9" fill="#f5ead3"/>
    <path d="M580 236 H 620"/>
    <circle cx="600" cy="274" r="9" fill="#f5ead3"/>
    <path d="M580 274 H 620"/>
    <circle cx="600" cy="312" r="9" fill="#f5ead3"/>
    <path d="M580 312 H 620"/>
    <circle cx="600" cy="350" r="9" fill="#f5ead3"/>
    <path d="M580 350 H 620"/>
    <circle cx="600" cy="388" r="9" fill="#f5ead3"/>
    <path d="M580 388 H 620"/>
    <circle cx="600" cy="426" r="9" fill="#f5ead3"/>
    <path d="M580 426 H 620"/>
    <circle cx="600" cy="464" r="9" fill="#f5ead3"/>
    <path d="M580 464 H 620"/>
  </g>

  <g fill="#f5ead3" stroke="#1f2419" stroke-width="7" stroke-linecap="round" stroke-linejoin="round">
    <g transform="rotate(-38 700 331)">
    <rect x="660" y="318" width="190" height="26" fill="#f5ead3"/>
    <path d="M850 318 L 904 331 L 850 344"/>
    <path d="M886 326 V 336"/>
    <path d="M660 318 H 624 V 344 H 660"/>
    <path d="M660 331 H 850"/>
    </g>
  </g>

  <g fill="none" stroke="#8a7e3a" stroke-width="5" stroke-linecap="round" stroke-linejoin="round">
    <g transform="rotate(-38 700 331)">
    <path d="M850 322 L 884 331 L 850 340 Z"/>
    </g>
  </g>

  <g fill="#f5ead3" stroke="#5c4633" stroke-width="6" stroke-linecap="round" stroke-linejoin="round">
    <g transform="rotate(-2 1010 340)">
    <rect x="930" y="290" width="160" height="100" rx="6" fill="#f5ead3"/>
    <path d="M930 294 L 1010 348 L 1090 294"/>
    </g>
    <g transform="rotate(1.5 1010 390)">
    <rect x="930" y="340" width="160" height="100" rx="6" fill="#f5ead3"/>
    <path d="M930 344 L 1010 398 L 1090 344"/>
    </g>
    <g transform="rotate(-1 1010 440)">
    <rect x="930" y="390" width="160" height="100" rx="6" fill="#f5ead3"/>
    <path d="M930 394 L 1010 448 L 1090 394"/>
    </g>
  </g>

  <g fill="none" stroke="#6b2a2f" stroke-width="5" stroke-linecap="round" stroke-linejoin="round">
    <rect x="1048" y="402" width="30" height="36" rx="3"/>
  </g>

</svg>
